<svg width="20" height="20" viewBox="0 0 20 20" fill="none" xmlns="http://www.w3.org/2000/svg">
<path d="M8.49609 1.75781C7.46745 1.75781 6.4974 1.95312 5.58594 2.34375C4.67448 2.73438 3.88021 3.26823 3.20312 3.94531C2.52604 4.6224 1.98568 5.41667 1.58203 6.32812C1.19141 7.23958 0.996094 8.21615 0.996094 9.25781C0.996094 10.2865 1.19141 11.2565 1.58203 12.168C1.98568 13.0794 2.52604 13.8737 3.20312 14.5508C3.88021 15.2279 4.67448 15.7617 5.58594 16.1523C6.4974 16.556 7.46745 16.7578 8.49609 16.7578C9.35547 16.7578 10.1725 16.6211 10.9473 16.3477C11.722 16.0742 12.4219 15.6966 13.0469 15.2148L16.582 18.75H19.4141L14.4727 13.8086C14.9544 13.1706 15.3288 12.4642 15.5957 11.6895C15.8626 10.9147 15.9961 10.1042 15.9961 9.25781C15.9961 8.21615 15.8008 7.23958 15.4102 6.32812C15.0195 5.41667 14.4857 4.6224 13.8086 3.94531C13.1315 3.26823 12.3372 2.73438 11.4258 2.34375C10.5143 1.95312 9.53776 1.75781 8.49609 1.75781ZM3.00781 9.25781C3.00781 8.48958 3.15104 7.77344 3.4375 7.10938C3.72396 6.44531 4.11458 5.86263 4.60938 5.36133C5.10417 4.86003 5.6901 4.46615 6.36719 4.17969C7.03125 3.89323 7.74089 3.75 8.49609 3.75C9.26432 3.75 9.98047 3.89323 10.6445 4.17969C11.3086 4.46615 11.8913 4.86003 12.3926 5.36133C12.8939 5.86263 13.2878 6.44531 13.5742 7.10938C13.8607 7.77344 14.0039 8.48958 14.0039 9.25781C14.0039 10.013 13.8607 10.7227 13.5742 11.3867C13.2878 12.0638 12.8939 12.6497 12.3926 13.1445C11.8913 13.6393 11.3086 14.0299 10.6445 14.3164C9.98047 14.6029 9.26432 14.7461 8.49609 14.7461C7.74089 14.7461 7.03125 14.6029 6.36719 14.3164C5.6901 14.0299 5.10417 13.6393 4.60938 13.1445C4.11458 12.6497 3.72396 12.0638 3.4375 11.3867C3.15104 10.7227 3.00781 10.013 3.00781 9.25781Z" fill="white"/>
</svg>
