<svg width="108" height="20" viewBox="0 0 108 20" fill="none" xmlns="http://www.w3.org/2000/svg">
<g clip-path="url(#clip0_4_180)">
<path d="M96.0057 6.7067H94.3025V18.2161H96.0057V6.7067ZM47.2483 6.7067H45.545V18.2161H47.2483V6.7067ZM13.6655 6.44447H15.6057C15.0873 4.75532 12.8459 1.5217 8.21176 1.5217C3.57761 1.5217 0 5.17489 0 10.0108C0 14.9119 3.53485 18.5 8.21176 18.5C12.8441 18.5 15.0873 15.1959 15.563 13.617H13.6869C13.1702 14.6461 11.531 16.724 8.21176 16.724C4.6484 16.724 1.94025 13.8576 1.94025 10.0325C1.94025 6.16053 4.65553 3.29404 8.21176 3.29404C11.4669 3.29404 13.0829 5.37202 13.6655 6.44447ZM26.4472 12.4614C26.4472 14.9336 24.7226 16.838 22.3743 16.838C20.0261 16.838 18.2765 14.9336 18.2765 12.4614C18.2765 9.98915 20.0011 8.08479 22.3743 8.08479C24.7475 8.08479 26.4472 9.98915 26.4472 12.4614ZM26.4259 18.2161H28.1291V6.7067H26.4259V8.87692C26.082 8.11192 24.874 6.44808 22.3084 6.44808C19.0764 6.44808 16.5322 9.03064 16.5322 12.465C16.5322 15.8994 19.0764 18.4819 22.3084 18.4819C24.874 18.4819 26.0606 16.8416 26.4259 16.0531V18.2161ZM30.1977 18.2161H31.901V1.5H30.1977V18.2161ZM39.7475 18.2161L44.1446 6.7067H42.2685L38.6624 16.4437L35.0688 6.7067H33.1945L37.5934 18.2161H39.7475ZM45.5237 4.69383H47.2697V2.68096H45.5237V4.69383ZM57.5072 18.2161H59.2319V11.7181C59.2319 8.80819 57.7442 6.44447 54.5764 6.44447C52.2263 6.44447 51.2357 7.99798 51.013 8.63277V6.7067H49.3169V18.2161H51.0201V11.8483C51.0201 9.6383 52.2495 8.08479 54.2966 8.08479C56.3438 8.08479 57.5037 9.59489 57.5037 11.7615L57.5072 18.2161ZM76.9079 18.2161L70.4191 9.22415L76.9079 1.80926H74.6648L67.0784 10.5625V1.80564H65.2094V18.2161H67.0855V13.0311L69.1291 10.689L74.7557 18.2161H76.9079ZM77.8772 18.2161H79.5805V1.5H77.8772V18.2161ZM83.0262 11.3672C83.1855 10.435 83.6643 9.58996 84.3779 8.98137C85.0916 8.37278 85.9942 8.03984 86.9263 8.04138C89.189 8.04138 90.4612 9.6383 90.8068 11.3672H83.0262ZM82.9211 12.8936H92.6473C92.7346 9.13011 90.2545 6.43904 86.9352 6.43904C83.6801 6.43904 81.2018 9.065 81.2018 12.456C81.2018 15.8469 83.6587 18.4729 86.978 18.4729C90.3846 18.4729 92.0665 16.0874 92.5012 14.5122H90.7997C90.3471 15.4762 89.2478 16.8633 86.9833 16.8633C84.7188 16.8633 83.0636 15.1127 82.9318 12.9027L82.9211 12.8936ZM94.2918 4.69745H96.0325V2.68096H94.2864L94.2918 4.69745ZM108 18.2197V11.7181C108 8.80819 106.512 6.44447 103.344 6.44447C100.994 6.44447 100.004 7.99798 99.7811 8.63277V6.7067H98.0778V18.2161H99.774V11.8483C99.774 9.6383 101.002 8.08479 103.051 8.08479C105.099 8.08479 106.258 9.59489 106.258 11.7615V18.2161L108 18.2197Z" fill="white"/>
</g>
<defs>
<clipPath id="clip0_4_180">
<rect width="108" height="20" fill="white"/>
</clipPath>
</defs>
</svg>
