<svg width="20" height="20" viewBox="0 0 20 20" fill="none" xmlns="http://www.w3.org/2000/svg">
<path d="M5.66406 6.99219H4.17969L2.83203 15.4102H17.168L15.8203 6.99219H5.66406ZM14.2969 5H17.5195L19.5117 17.4219H0.488281L2.48047 5H5.70312C5.78125 4.46615 5.94401 3.97135 6.19141 3.51562C6.4388 3.0599 6.75456 2.66602 7.13867 2.33398C7.52279 2.00195 7.95573 1.73828 8.4375 1.54297C8.93229 1.34766 9.45312 1.25 10 1.25C10.5469 1.25 11.0677 1.34766 11.5625 1.54297C12.0443 1.73828 12.4772 2.00195 12.8613 2.33398C13.2454 2.66602 13.5612 3.0599 13.8086 3.51562C14.056 3.97135 14.2188 4.46615 14.2969 5ZM12.2656 5C12.1354 4.49219 11.862 4.07227 11.4453 3.74023C11.0286 3.4082 10.5469 3.24219 10 3.24219C9.45312 3.24219 8.97135 3.4082 8.55469 3.74023C8.13802 4.07227 7.86458 4.49219 7.73438 5H12.2656Z" fill="white"/>
</svg>
