<svg width="20" height="20" viewBox="0 0 20 20" fill="none" xmlns="http://www.w3.org/2000/svg">
<mask id="mask0_8_9" style="mask-type:luminance" maskUnits="userSpaceOnUse" x="4" y="6" width="12" height="11">
<path d="M9.99989 16.6666L4.99121 11.658L9.99989 6.64929L15.0086 11.658L9.99989 16.6666Z" fill="white"/>
</mask>
<g mask="url(#mask0_8_9)">
<path d="M9.99968 16.6667L8.82118 17.8452L9.99968 19.0237L11.1782 17.8452L9.99968 16.6667ZM9.99968 16.6667L11.1782 15.4882L6.16953 10.4795L4.99101 11.658L3.8125 12.8365L8.82118 17.8452L9.99968 16.6667ZM15.0084 11.658L13.8299 10.4795L8.82118 15.4882L9.99968 16.6667L11.1782 17.8452L16.1868 12.8365L15.0084 11.658Z" fill="white"/>
</g>
<path d="M10.8332 3.33331H9.1665V15H10.8332V3.33331Z" fill="white"/>
</svg>
