<svg width="17" height="16" viewBox="0 0 17 16" fill="none" xmlns="http://www.w3.org/2000/svg">
<path d="M13.2246 11.4062H15.3027V10.2031H13.2246C13.0892 9.63021 12.7871 9.15365 12.3184 8.77344C11.8496 8.39323 11.3079 8.20312 10.6934 8.20312C10.0788 8.20312 9.53711 8.39323 9.06836 8.77344C8.59961 9.15365 8.29753 9.63021 8.16211 10.2031H0.896484V11.4062H8.16211C8.29753 11.9792 8.59961 12.4557 9.06836 12.8359C9.53711 13.2161 10.0788 13.4062 10.6934 13.4062C11.3079 13.4062 11.8496 13.2161 12.3184 12.8359C12.7871 12.4557 13.0892 11.9792 13.2246 11.4062ZM12.0996 10.7969C12.0996 11.1823 11.9642 11.513 11.6934 11.7891C11.4225 12.0651 11.0892 12.2031 10.6934 12.2031C10.3079 12.2031 9.97982 12.0651 9.70898 11.7891C9.43815 11.513 9.30273 11.1823 9.30273 10.7969C9.30273 10.4115 9.43815 10.0833 9.70898 9.8125C9.97982 9.54167 10.3079 9.40625 10.6934 9.40625C11.0892 9.40625 11.4225 9.54167 11.6934 9.8125C11.9642 10.0833 12.0996 10.4115 12.0996 10.7969ZM8.03711 5.79688H15.3027V4.60938H8.03711C7.90169 4.02604 7.59961 3.54427 7.13086 3.16406C6.66211 2.78385 6.12044 2.59375 5.50586 2.59375C4.89128 2.59375 4.34961 2.78385 3.88086 3.16406C3.41211 3.54427 3.11003 4.02604 2.97461 4.60938H0.896484V5.79688H2.97461C3.11003 6.36979 3.41211 6.84635 3.88086 7.22656C4.34961 7.60677 4.89128 7.79688 5.50586 7.79688C6.12044 7.79688 6.66211 7.60677 7.13086 7.22656C7.59961 6.84635 7.90169 6.36979 8.03711 5.79688ZM6.89648 5.20312C6.89648 5.58854 6.76107 5.91667 6.49023 6.1875C6.2194 6.45833 5.89128 6.59375 5.50586 6.59375C5.11003 6.59375 4.77669 6.45833 4.50586 6.1875C4.23503 5.91667 4.09961 5.58854 4.09961 5.20312C4.09961 4.81771 4.23503 4.48698 4.50586 4.21094C4.77669 3.9349 5.11003 3.79688 5.50586 3.79688C5.89128 3.79688 6.2194 3.9349 6.49023 4.21094C6.76107 4.48698 6.89648 4.81771 6.89648 5.20312Z" fill="#696969"/>
</svg>
