<svg width="20" height="16" viewBox="0 0 20 16" fill="none" xmlns="http://www.w3.org/2000/svg">
<g clip-path="url(#clip0_4_139)">
<path d="M11.5047 11.8256L12.2129 12.3628C12.2323 12.3371 12.2504 12.3105 12.2669 12.2829L11.5047 11.8256ZM9.99989 13.8094L9.2917 14.3465L9.99989 15.2801L10.7081 14.3465L9.99989 13.8094ZM8.49506 11.8256L7.73284 12.2829C7.74939 12.3105 7.76743 12.3371 7.78687 12.3628L8.49506 11.8256ZM10.7965 11.2883L9.2917 13.2721L10.7081 14.3465L12.2129 12.3628L10.7965 11.2883ZM10.7081 13.2721L9.20325 11.2883L7.78687 12.3628L9.2917 14.3465L10.7081 13.2721ZM9.25727 11.3682C9.12894 11.1544 8.9474 10.9773 8.73035 10.8545L7.85444 12.4015C7.80435 12.3731 7.76246 12.3322 7.73284 12.2829L9.25727 11.3682ZM8.73035 10.8545C8.51329 10.7315 8.2681 10.667 8.01867 10.667V12.4448C7.96113 12.4448 7.90454 12.4298 7.85444 12.4015L8.73035 10.8545ZM8.01867 10.667H3.88878V12.4448H8.01867V10.667ZM3.88878 10.667C3.97719 10.667 4.06197 10.7021 4.12448 10.7646L2.8674 12.0217C3.13828 12.2926 3.50569 12.4448 3.88878 12.4448V10.667ZM4.12448 10.7646C4.18699 10.8271 4.22211 10.9119 4.22211 11.0003H2.44434C2.44434 11.3833 2.59652 11.7508 2.8674 12.0217L4.12448 10.7646ZM4.22211 11.0003V2.11144H2.44434V11.0003H4.22211ZM4.22211 2.11144C4.22211 2.19985 4.18699 2.28463 4.12448 2.34714L2.8674 1.09006C2.59652 1.36095 2.44434 1.72834 2.44434 2.11144H4.22211ZM4.12448 2.34714C4.06197 2.40965 3.97719 2.44477 3.88878 2.44477V0.666992C3.50569 0.666992 3.13829 0.819174 2.8674 1.09006L4.12448 2.34714ZM3.88878 2.44477H16.111V0.666992H3.88878V2.44477ZM16.111 2.44477C16.0226 2.44477 15.9378 2.40965 15.8753 2.34714L17.1323 1.09006C16.8615 0.819175 16.4941 0.666992 16.111 0.666992V2.44477ZM15.8753 2.34714C15.8128 2.28463 15.7777 2.19985 15.7777 2.11144H17.5554C17.5554 1.72834 17.4033 1.36095 17.1323 1.09006L15.8753 2.34714ZM15.7777 2.11144V11.0003H17.5554V2.11144H15.7777ZM15.7777 11.0003C15.7777 10.9119 15.8128 10.8272 15.8753 10.7646L17.1323 12.0217C17.4033 11.7508 17.5554 11.3834 17.5554 11.0003H15.7777ZM15.8753 10.7646C15.9378 10.7021 16.0226 10.667 16.111 10.667V12.4448C16.4941 12.4448 16.8615 12.2926 17.1323 12.0217L15.8753 10.7646ZM16.111 10.667H11.9811V12.4448H16.111V10.667ZM11.9811 10.667C11.7317 10.667 11.4865 10.7315 11.2694 10.8545L12.1453 12.4015C12.0953 12.4298 12.0386 12.4448 11.9811 12.4448V10.667ZM11.2694 10.8545C11.0524 10.9773 10.8709 11.1544 10.7425 11.3682L12.2669 12.2829C12.2373 12.3322 12.1954 12.3731 12.1453 12.4015L11.2694 10.8545Z" fill="#AAAAAA"/>
</g>
<defs>
<clipPath id="clip0_4_139">
<rect width="20" height="16" fill="white"/>
</clipPath>
</defs>
</svg>
