<svg width="20" height="20" viewBox="0 0 20 20" fill="none" xmlns="http://www.w3.org/2000/svg">
<path d="M5.99609 7.24609C5.99609 6.69922 6.10026 6.17839 6.30859 5.68359C6.51693 5.20182 6.80339 4.7819 7.16797 4.42383C7.53255 4.06575 7.95573 3.77604 8.4375 3.55469C8.93229 3.34635 9.45312 3.24219 10 3.24219C10.5469 3.24219 11.0677 3.34635 11.5625 3.55469C12.0443 3.77604 12.4674 4.06575 12.832 4.42383C13.1966 4.7819 13.4831 5.20182 13.6914 5.68359C13.8997 6.17839 14.0039 6.69922 14.0039 7.24609C14.0039 7.80599 13.8997 8.32682 13.6914 8.80859C13.4831 9.29036 13.1966 9.71354 12.832 10.0781C12.4674 10.4427 12.0443 10.7292 11.5625 10.9375C11.0677 11.1458 10.5469 11.25 10 11.25C9.45312 11.25 8.93229 11.1458 8.4375 10.9375C7.95573 10.7292 7.53255 10.4427 7.16797 10.0781C6.80339 9.71354 6.51693 9.29036 6.30859 8.80859C6.10026 8.32682 5.99609 7.80599 5.99609 7.24609ZM10 1.25C9.16667 1.25 8.38542 1.40625 7.65625 1.71875C6.92708 2.03125 6.29232 2.46094 5.75195 3.00781C5.21159 3.55469 4.78516 4.19271 4.47266 4.92188C4.16016 5.65104 4.00391 6.42578 4.00391 7.24609C4.00391 8.20964 4.21224 9.10156 4.62891 9.92188C5.04557 10.7422 5.60547 11.4258 6.30859 11.9727C5.70964 12.2201 5.14323 12.5195 4.60938 12.8711C4.07552 13.2357 3.58073 13.6426 3.125 14.0918C2.66927 14.541 2.26562 15.0326 1.91406 15.5664C1.54948 16.0872 1.24349 16.6471 0.996094 17.2461H3.22266C3.54818 16.6471 3.94531 16.1068 4.41406 15.625C4.89583 15.1302 5.42643 14.707 6.00586 14.3555C6.58529 14.0039 7.21354 13.7305 7.89062 13.5352C8.56771 13.3398 9.27083 13.2422 10 13.2422C10.7292 13.2422 11.4323 13.3398 12.1094 13.5352C12.7865 13.7305 13.4147 14.0039 13.9941 14.3555C14.5736 14.707 15.1042 15.1302 15.5859 15.625C16.0547 16.1068 16.4518 16.6471 16.7773 17.2461H19.0039C18.7565 16.6471 18.4505 16.0872 18.0859 15.5664C17.7344 15.0326 17.3307 14.541 16.875 14.0918C16.4193 13.6426 15.9245 13.2357 15.3906 12.8711C14.8568 12.5195 14.2904 12.2201 13.6914 11.9727C14.3945 11.4258 14.9544 10.7422 15.3711 9.92188C15.7878 9.10156 15.9961 8.20964 15.9961 7.24609C15.9961 6.42578 15.8398 5.65104 15.5273 4.92188C15.2148 4.19271 14.7884 3.55469 14.248 3.00781C13.7077 2.46094 13.0729 2.03125 12.3438 1.71875C11.6146 1.40625 10.8333 1.25 10 1.25Z" fill="white"/>
</svg>
