<svg width="604" height="24" viewBox="0 0 604 24" fill="none" xmlns="http://www.w3.org/2000/svg">
<g clip-path="url(#clip0_4_163)">
<g clip-path="url(#clip1_4_163)">
<path fill-rule="evenodd" clip-rule="evenodd" d="M5.87736 3.85981C6.9443 3.81143 7.28481 3.7998 10.0007 3.7998C12.7167 3.7998 13.0571 3.81143 14.1238 3.85981C15.1884 3.90856 15.9152 4.0777 16.5517 4.32447C17.209 4.58024 17.7667 4.92227 18.3229 5.47806C18.879 6.03386 19.221 6.59153 19.4764 7.24933C19.7236 7.88538 19.8927 8.61256 19.9411 9.67689C19.9894 10.7439 20.0011 11.0844 20.0011 13.8004C20.0011 16.5167 19.9898 16.8573 19.9411 17.9238C19.8927 18.9881 19.7236 19.7154 19.4764 20.3514C19.2207 21.0088 18.8787 21.5665 18.3229 22.1226C17.7671 22.6788 17.2094 23.0208 16.5517 23.2762C15.9156 23.5234 15.1884 23.6925 14.1241 23.7409C13.0571 23.7893 12.7167 23.8009 10.0007 23.8009C7.28444 23.8009 6.94392 23.7896 5.87736 23.7409C4.81304 23.6925 4.08587 23.5234 3.44983 23.2762C2.79242 23.0205 2.23476 22.6785 1.6786 22.1226C1.12244 21.5668 0.780422 21.0091 0.525032 20.3514C0.277892 19.7154 0.108757 18.9885 0.0600037 17.9241C0.0116257 16.8572 0 16.5167 0 13.8007C0 11.0844 0.0116257 10.7438 0.0600037 9.67727C0.108757 8.61294 0.277892 7.88575 0.525032 7.2497C0.780422 6.5919 1.12244 6.03423 1.6786 5.47844C2.23439 4.92227 2.79204 4.58024 3.44983 4.32485C4.08587 4.0777 4.81304 3.90856 5.87736 3.85981ZM14.042 5.66033C12.9874 5.61195 12.6709 5.60183 10.0007 5.60183C7.33019 5.60183 7.01404 5.61195 5.95949 5.66033C4.98442 5.70458 4.45489 5.86772 4.10238 6.0046C3.63584 6.18612 3.30244 6.40288 2.95256 6.75279C2.60266 7.10269 2.38589 7.43572 2.20438 7.90263C2.0675 8.25516 1.90474 8.7847 1.86011 9.75977C1.81173 10.8144 1.80161 11.1305 1.80161 13.8011C1.80161 16.4717 1.81211 16.7878 1.86011 17.8425C1.90437 18.8175 2.0675 19.347 2.20438 19.6996C2.38589 20.1665 2.60266 20.4995 2.95256 20.8494C3.30244 21.1994 3.63547 21.416 4.10238 21.5976C4.45489 21.7345 4.98442 21.8976 5.95949 21.9419C7.01404 21.9902 7.33019 22.0004 10.0007 22.0004C12.6712 22.0004 12.9878 21.9899 14.042 21.9419C15.017 21.8976 15.5466 21.7345 15.8991 21.5976C16.366 21.416 16.699 21.1994 17.0489 20.8494C17.3988 20.4995 17.6156 20.1665 17.7971 19.6996C17.934 19.347 18.0967 18.8175 18.1413 17.8425C18.1898 16.7878 18.1999 16.4717 18.1999 13.8011C18.1999 11.1305 18.1893 10.8144 18.1413 9.75977C18.0971 8.7847 17.934 8.25516 17.7971 7.90263C17.6156 7.43609 17.3988 7.10269 17.0489 6.75279C16.699 6.40288 16.366 6.18612 15.8991 6.0046C15.5466 5.86772 15.017 5.70496 14.042 5.66033ZM6.66567 13.801C6.66567 15.642 8.15826 17.1346 9.99924 17.1346C11.8402 17.1346 13.3328 15.642 13.3328 13.801C13.3328 11.96 11.8402 10.4673 9.99924 10.4673C8.15826 10.4673 6.66567 11.96 6.66567 13.801ZM4.86368 13.801C4.86368 10.9646 7.16294 8.66533 9.99924 8.66533C12.8356 8.66533 15.1344 10.9646 15.1348 13.801C15.1348 16.6374 12.8356 18.9366 9.99924 18.9366C7.16294 18.9366 4.86368 16.6374 4.86368 13.801ZM15.3373 9.66253C16 9.66253 16.5373 9.1251 16.5373 8.46243C16.5373 7.79976 16.0003 7.26234 15.3373 7.26234C14.6747 7.26234 14.1372 7.79976 14.1372 8.46243C14.1372 9.1251 14.6747 9.66253 15.3373 9.66253Z" fill="#AAAAAA"/>
</g>
</g>
<g clip-path="url(#clip2_4_163)">
<path fill-rule="evenodd" clip-rule="evenodd" d="M58.0198 3.7998C58.3499 6.63809 59.934 8.33025 62.6883 8.51028V11.7026C61.0921 11.8586 59.694 11.3366 58.0679 10.3525V16.3231C58.0679 23.9078 49.799 26.2781 46.4747 20.8416C44.3385 17.3432 45.6466 11.2045 52.4993 10.9585V14.3249C51.9772 14.4089 51.4192 14.5409 50.9091 14.7149C49.385 15.2309 48.5209 16.197 48.7609 17.9012C49.223 21.1656 55.2116 22.1317 54.7135 15.753V3.80581H58.0198V3.7998Z" fill="#AAAAAA"/>
</g>
<g clip-path="url(#clip3_4_163)">
<g clip-path="url(#clip4_4_163)">
<path d="M95.0282 23.7998L95.0002 15.0498H91.3335V11.2998H95.0002V8.7998C95.0002 5.4258 97.0431 3.7998 99.9861 3.7998C101.396 3.7998 102.607 3.90714 102.96 3.95512V7.48114L100.919 7.48209C99.3188 7.48209 99.0089 8.25993 99.0089 9.40135V11.2998H103.556L102.333 15.0498H99.0089V23.7998H95.0282Z" fill="#AAAAAA"/>
</g>
</g>
<g clip-path="url(#clip5_4_163)">
<path d="M143.734 12.35L150.782 4.32617H149.113L142.99 11.2917L138.103 4.32617H132.465L139.856 14.8603L132.465 23.2734H134.135L140.597 15.9161L145.759 23.2734H151.396M134.737 5.55925H137.302L149.111 22.101H146.545" fill="#CCCCCC"/>
</g>
<g clip-path="url(#clip6_4_163)">
<g clip-path="url(#clip7_4_163)">
<path fill-rule="evenodd" clip-rule="evenodd" d="M194 12.7976C194 7.81384 189.985 3.7998 185 3.7998C180.015 3.7998 176 7.81384 176 12.7976C176 16.4868 178.206 19.6485 181.395 21.0466C181.35 20.4197 181.377 19.6485 181.544 18.981C181.702 18.2323 182.704 14.0694 182.704 14.0694C182.704 14.0694 182.415 13.5056 182.415 12.6442C182.415 11.3182 183.186 10.317 184.147 10.317C184.955 10.317 185.352 10.9213 185.352 11.67C185.352 12.4773 184.833 13.7086 184.562 14.8587C184.332 15.8148 185.045 16.5816 185.979 16.5816C187.693 16.5816 188.835 14.4032 188.835 11.8188C188.835 9.83438 187.526 8.35505 185.108 8.35505C182.374 8.35505 180.669 10.3936 180.669 12.6668C180.669 13.4605 180.899 13.9927 181.251 14.4347C181.418 14.6287 181.463 14.7053 181.4 14.9354C181.355 15.1022 181.251 15.4991 181.215 15.648C181.143 15.878 180.962 15.9546 180.75 15.878C179.501 15.3773 178.923 13.9972 178.923 12.4412C178.919 9.87949 181.062 6.8216 185.352 6.8216C188.771 6.8216 191.041 9.32022 191.041 11.9902C191.041 15.5036 189.087 18.1511 186.191 18.1511C185.217 18.1511 184.292 17.6324 183.985 17.0281C183.985 17.0281 183.466 19.1118 183.362 19.5041C183.168 20.1897 182.799 20.8842 182.438 21.4209C183.254 21.678 184.107 21.7998 185.005 21.7998C189.985 21.7953 194 17.7813 194 12.7976Z" fill="#AAAAAA"/>
</g>
</g>
<g clip-path="url(#clip8_4_163)">
<path d="M239.75 10.0675C239.5 8.55078 238.75 7.50078 237 7.26745C234.25 6.80078 230 6.80078 230 6.80078C230 6.80078 225.75 6.80078 223 7.26745C221.25 7.50078 220.375 8.55078 220.25 10.0675C220 11.5841 220 13.8008 220 13.8008C220 13.8008 220 16.0174 220.25 17.5341C220.5 19.0508 221.25 20.1008 223 20.3341C225.75 20.8008 230 20.8008 230 20.8008C230 20.8008 234.25 20.8008 237 20.3341C238.75 19.9841 239.5 19.0508 239.75 17.5341C240 16.0174 240 13.8008 240 13.8008C240 13.8008 240 11.5841 239.75 10.0675ZM227.5 17.3008V10.3008L233.75 13.8008L227.5 17.3008Z" fill="#AAAAAA"/>
</g>
<defs>
<clipPath id="clip0_4_163">
<rect width="20" height="20" fill="white" transform="translate(0 3.7998)"/>
</clipPath>
<clipPath id="clip1_4_163">
<rect width="20" height="20" fill="white" transform="translate(0 3.7998)"/>
</clipPath>
<clipPath id="clip2_4_163">
<rect width="20" height="20" fill="white" transform="translate(44 3.7998)"/>
</clipPath>
<clipPath id="clip3_4_163">
<rect width="20" height="20" fill="white" transform="translate(88 3.7998)"/>
</clipPath>
<clipPath id="clip4_4_163">
<rect width="20" height="20" fill="white" transform="translate(88 3.7998)"/>
</clipPath>
<clipPath id="clip5_4_163">
<rect width="20" height="20" fill="white" transform="translate(132 3.7998)"/>
</clipPath>
<clipPath id="clip6_4_163">
<rect width="20" height="20" fill="white" transform="translate(176 3.7998)"/>
</clipPath>
<clipPath id="clip7_4_163">
<rect width="20" height="20" fill="white" transform="translate(176 3.7998)"/>
</clipPath>
<clipPath id="clip8_4_163">
<rect width="20" height="20" fill="white" transform="translate(220 3.7998)"/>
</clipPath>
</defs>
</svg>
